<svg class="cherry-tomatoes-icon" xmlns="http://www.w3.org/2000/svg" viewBox="0 0 128 160" x="0px" y="0px">
    <g>
        <path fill="#00a700"
            d="M37.8,53.525c-.366.268-.739.52-1.115.748a.375.375,0,0,0-.036.618c.221.171.447.334.671.5a.375.375,0,0,0,.22.071.379.379,0,0,0,.158-.035,2.42,2.42,0,0,1,.809-.269.374.374,0,0,0,.292-.563,6.868,6.868,0,0,1-.43-.9.375.375,0,0,0-.569-.163Z">
        </path>
        <path fill="#00a700"
            d="M61.6,44.677a.374.374,0,0,0,.049.451l.067.071c.616.649,1.232,1.3,1.861,1.935l.267-.264h0l-.225.307a3.992,3.992,0,0,0,1.847,1.284,1.035,1.035,0,0,1,.162.056.54.54,0,0,0,.209.048.386.386,0,0,0,.162-.035.607.607,0,0,0,.239-.3,2.007,2.007,0,0,1,.144-.32,6.619,6.619,0,0,1,.485-.659c.141-.179.29-.371.429-.557a.376.376,0,0,0-.236-.593,8.974,8.974,0,0,1-1.738-.573c-.214-.087-.428-.174-.639-.253a18.146,18.146,0,0,0-1.94-.58c-.244-.063-.485-.126-.722-.191A.375.375,0,0,0,61.6,44.677Z">
        </path>
        <path fill="#00a700"
            d="M53,54.185a7.505,7.505,0,0,1-.783,1.674,10.836,10.836,0,0,0-.662,1.3.374.374,0,0,0,.115.432.366.366,0,0,0,.233.082.374.374,0,0,0,.213-.066,8.748,8.748,0,0,1,.8-.5c.247-.13.5-.256.751-.381l.05-.025a.369.369,0,0,0,.136-.115c1.417-1.954,1.43-4.976.037-8.085a.375.375,0,0,0-.706.243,18.27,18.27,0,0,1,.451,2.572,5.917,5.917,0,0,1-.412,2.136C53.142,53.7,53.062,53.951,53,54.185Z">
        </path>
        <path fill="#00a700"
            d="M87.354,43.4a.375.375,0,0,0-.3-.315,3.425,3.425,0,0,0-.832-.051c-.783.046-1.571.164-2.331.278a16.57,16.57,0,0,1-3.453.277,27.83,27.83,0,0,1-3.1-.43,29.978,29.978,0,0,0-3.118-.439.381.381,0,0,0-.352.189.374.374,0,0,0,.019.4c1.273,1.832,4.245,2.163,6.223,2.163.453,0,.853-.017,1.169-.037a15.425,15.425,0,0,0,5.878-1.646A.375.375,0,0,0,87.354,43.4Z">
        </path>
        <path fill="#00a700"
            d="M37.614,47.532a4.239,4.239,0,0,1-.339.352,12.518,12.518,0,0,1-2.647,1.733l-.1.039a.377.377,0,0,0-.193.172,11.464,11.464,0,0,0-1.084,2.851.376.376,0,0,0,.366.458.37.37,0,0,0,.264-.109c.261-.257.53-.507.8-.757a14.627,14.627,0,0,0,1.777-1.849l.256-.333a24.484,24.484,0,0,0,1.509-2.116.375.375,0,0,0-.6-.441Z">
        </path>
        <path fill="#00a700"
            d="M82.448,47.6a.374.374,0,0,0-.415-.223c-.5.094-1.014.166-1.492.208h0c-.916.087-1.839.261-2.73.43-.759.144-1.544.293-2.31.383a.376.376,0,0,0,.025.748,3.018,3.018,0,0,1,.315.03,11.275,11.275,0,0,0,1.794.141,8.251,8.251,0,0,0,4.686-1.265A.373.373,0,0,0,82.448,47.6Z">
        </path>
        <path fill="#00a700"
            d="M69.846,43.992l.084-.079c.059-.055.119-.111.178-.175.222-.246.418-.5.615-.756l.237-.306a.374.374,0,0,0-.236-.6c-.254-.04-.5-.082-.755-.13a.368.368,0,0,0-.434.274c-.124.476-.227.951-.319,1.436a.375.375,0,0,0,.63.339Z">
        </path>
        <path fill="#00a700"
            d="M63.019,43.568a.374.374,0,0,0,.266.227c.465.1.946.235,1.472.4a.369.369,0,0,0,.113.017.374.374,0,0,0,.3-.6,16.768,16.768,0,0,1-1.427-2.22.374.374,0,0,0-.283-.2c-.246-.03-.5-.065-.739-.1a.366.366,0,0,0-.347.129.373.373,0,0,0-.067.363l.076.222c.171.5.349,1.025.608,1.669l.364-.091h0Z">
        </path>
        <path fill="#00a700"
            d="M90.626,32.031c.018.214.071.709.142,1.364a64.93,64.93,0,0,1,.567,7.548c0,.012-.029.1-.032.112a.373.373,0,0,0,.365.458.327.327,0,0,0,.076-.008l.579-.121L93,41.115a.376.376,0,0,0,.212-.481,2.587,2.587,0,0,1-.149-.887c-.1-.405-.394-2.009-.708-3.707-.446-2.4-.951-5.125-1.145-5.871a.375.375,0,0,0-.736.13l.039.419C90.552,31.152,90.593,31.586,90.626,32.031Z">
        </path>
        <path fill="#00a700"
            d="M29.974,54.442l.28.071a6.683,6.683,0,0,0,1.314.241.359.359,0,0,0,.274-.1.382.382,0,0,0,.121-.264c.107-3.109,1.179-4.839,2.919-7.4a20.691,20.691,0,0,1,2.87-3.123c.37-.353.736-.7,1.083-1.049.482-.482.918-1,1.339-1.5.273-.325.546-.65.831-.964a.375.375,0,0,0,.074-.379.691.691,0,0,1,.044-.555.517.517,0,0,1,.377-.255,14.435,14.435,0,0,1,2.406-.173c.413-.008.825-.014,1.236-.038.5-.03,1-.088,1.495-.147a13.625,13.625,0,0,1,2.585-.139.376.376,0,0,0,.41-.206,2.09,2.09,0,0,1,.234-.4.54.54,0,0,1,.8-.045.458.458,0,0,1,.082.686,1.968,1.968,0,0,0-.35.679c-.1.283-.155.423-.361.526a2.56,2.56,0,0,0-1.342,1.679,3.1,3.1,0,0,1-.49.989c-.192.24-.422.475-.655.714A3.906,3.906,0,0,0,46.051,46a6.3,6.3,0,0,1-.193,1.432,6.438,6.438,0,0,0-.2,1.657l-.007.117a.378.378,0,0,0,.082.261c.979,1.218,2.091,2.382,3.166,3.507.655.685,1.306,1.366,1.921,2.053a.38.38,0,0,0,.28.124l.047,0a.373.373,0,0,0,.285-.2c.081-.155.16-.316.233-.474a.375.375,0,0,0-.274-.526.486.486,0,0,1-.3-.193,6.5,6.5,0,0,0-.53-.585,3.24,3.24,0,0,1-.646-.811,11.716,11.716,0,0,1-.633-1.6c-.115-.34-.23-.677-.357-.994-.083-.207-.179-.412-.275-.619a4.892,4.892,0,0,1-.477-1.329,6.931,6.931,0,0,1-.046-1.027,7.648,7.648,0,0,0-.05-1.107.6.6,0,0,1,.012-.23c.007-.022.011-.133.013-.155.14-1.418,1.174-2.415,2.268-3.471.376-.363.765-.738,1.105-1.125,1.276-1.449,2.059-1.474,3.62-1.523.33-.01.687-.021,1.083-.048a22.553,22.553,0,0,1,6.489.8c.507.113,1.016.225,1.531.332a13.481,13.481,0,0,0,2.455.181,16.523,16.523,0,0,1,1.889.1c.536.071,1.069.179,1.6.287a16.836,16.836,0,0,0,2.517.375.368.368,0,0,1,.353.206.374.374,0,0,0,.338.22,27.3,27.3,0,0,1,4.332.534c.351.062.7.123,1.031.178a15.177,15.177,0,0,0,3.083.167.375.375,0,0,0,.286-.6c-.052-.07-.106-.133-.151-.183a.481.481,0,0,1-.1-.362.571.571,0,0,1,.211-.385.553.553,0,0,1,.768.117,3.773,3.773,0,0,1,.61.955.376.376,0,0,0,.413.287c.341-.043.687-.095,1.023-.15a.376.376,0,0,0,.241-.595,1.75,1.75,0,0,1-.261-.484.557.557,0,0,1,.29-.727l.1-.039.144-.058c.471-.191.605-.237.866-.15.608.2,2.435-1.4,2.5-1.481s.158-.177.235-.26a2.486,2.486,0,0,0,.716-1.168,1.355,1.355,0,0,0-.1-.767,2.045,2.045,0,0,0-.138-.3.375.375,0,0,0-.524-.142A25.111,25.111,0,0,1,79.75,39.4a10.015,10.015,0,0,1-3.224-.212,13.162,13.162,0,0,0-2.782-.278,18.53,18.53,0,0,1-3.551-.3c-.56-.084-1.126-.168-1.708-.231a21.859,21.859,0,0,1-2.769-.542,19.581,19.581,0,0,0-3.4-.606,42,42,0,0,1-4.542-.625c-.877-.153-1.753-.307-2.632-.428a19.1,19.1,0,0,0-5.849.362c-.714.119-1.43.238-2.154.327a5.976,5.976,0,0,1-2.022-.261l-.181-.043a11.963,11.963,0,0,0-5.431.16.494.494,0,0,1-.094.009.375.375,0,0,0-.275.148c-.449.588-.175,1.284.067,1.9a1.843,1.843,0,0,1,.221,1.2,3.99,3.99,0,0,1-1.354,1.309,6.166,6.166,0,0,0-1.288,1.123c-.952,1.237-1.875,2.509-2.767,3.739l-1.01,1.388q-.279.377-.565.751c-1.215,1.605-2.472,3.264-2.653,5.414a.5.5,0,0,1-.06.206.381.381,0,0,0-.008.328A.373.373,0,0,0,29.974,54.442Z">
        </path>
        <path fill="#00a700"
            d="M94.2,40.438a.377.377,0,0,0,.263.255.659.659,0,0,0,.245.022.622.622,0,0,1,.335.095.376.376,0,0,0,.489-.05.554.554,0,0,1,.154-.125c1.876-1.053,4.71-7.693,4.8-9.521.018-.273.056-.541.094-.81a.375.375,0,0,0-.679-.267l-.364.516c-.293.412-.585.824-.848,1.245-.224.351-.637,1.286-1.161,2.471a24.723,24.723,0,0,1-2.055,4.105,4.843,4.843,0,0,0-1.336,1.688.371.371,0,0,0,0,.19Z">
        </path>
        <path fill="#00a700"
            d="M79.7,50.483a.378.378,0,0,0-.414-.227,13.552,13.552,0,0,1-4.71-.2,11.434,11.434,0,0,0-1.434-.1c-1.16-.037-2.36-.075-3.035-.871a.577.577,0,0,1-.086-.444.387.387,0,0,1,.16-.276,12.449,12.449,0,0,1,4.861-1.031c.5-.041.988-.082,1.44-.135.165-.021.343-.041.535-.06a.375.375,0,0,0,.034-.741,5.551,5.551,0,0,1-4.436-3.184.375.375,0,0,0-.607-.122,9.233,9.233,0,0,0-.838.985,9.123,9.123,0,0,1-.734.874l-.249.256A4.481,4.481,0,0,1,68.8,46.327a.374.374,0,0,0-.2.167,9.414,9.414,0,0,1-.587.855l-.241.33a9.024,9.024,0,0,0-.539.856c-.458.8-.685,1.2-1.731,1.027a.384.384,0,0,0-.2.021,6.836,6.836,0,0,1-4.325.574.376.376,0,0,0-.314.044.37.37,0,0,0-.168.269c-.051.417-.114.832-.2,1.243v0h0a.375.375,0,0,0,.291.443.368.368,0,0,0,.346-.106c.464-.209,3.246-.7,4.757-.97.334-.06.647-.115.919-.165l-.278.371c-.268.359-.572.767-.665.861l-.193.2a4.071,4.071,0,0,1-1.688,1.243.375.375,0,0,0,.086.732c1.244.084,2.494.233,3.6.364l.363.044c3.711.437,6.146,3.47,8.293,6.145a.372.372,0,0,0,.292.14.377.377,0,0,0,.088-.01.373.373,0,0,0,.279-.29,30.1,30.1,0,0,1,1.526-5.13.376.376,0,0,0-.338-.514,19.405,19.405,0,0,1-7.222-1.494.494.494,0,0,1-.291-.616.535.535,0,0,1,.59-.414,11.5,11.5,0,0,0,4.286-.042,12.657,12.657,0,0,0,4.228-1.572A.374.374,0,0,0,79.7,50.483Z">
        </path>
        <path fill="#00a700"
            d="M56.086,55.509a.361.361,0,0,0,.148-.031c.107-.046.211-.095.316-.143l.285-.13.006,0a.61.61,0,0,1,.2-.045.349.349,0,0,0,.122-.031,8.531,8.531,0,0,1,.861-.326.372.372,0,0,0,.253-.277,17.013,17.013,0,0,1,.517-1.748,14.233,14.233,0,0,0,.642-2.381,13.031,13.031,0,0,0,.1-1.848c0-.212,0-.424.009-.631l.008-.184c.009-.2.022-.461.028-.752a.375.375,0,0,0-.718-.158l-.342.785c-.2.461-.4.919-.6,1.371-.083.184-.16.364-.235.539a3.545,3.545,0,0,1-1.551,2.073.372.372,0,0,0-.2.367,8.987,8.987,0,0,1-.208,3.083.376.376,0,0,0,.363.47Z">
        </path>
        <path fill="#00a700"
            d="M55.857,50.254a.351.351,0,0,0,.072.007.375.375,0,0,0,.3-.149,6.977,6.977,0,0,0,.829-1.677.376.376,0,0,0-.189-.472c-.129-.061-.265-.119-.4-.177-.16-.069-.32-.137-.461-.21l-.007,0a2.727,2.727,0,0,1-.728-.631l-.21-.223a.375.375,0,0,0-.6.435,14.033,14.033,0,0,1,1.106,2.83A.377.377,0,0,0,55.857,50.254Z">
        </path>
        <path fill="#00a700"
            d="M78.945,52.6a9.909,9.909,0,0,1-1.749.642.375.375,0,0,0,.075.737c.465.028.929.046,1.383.042a.684.684,0,0,0,.09.008.375.375,0,0,0,.34-.216c.109-.233.228-.458.355-.7a.375.375,0,0,0-.494-.512Z">
        </path>
        <path fill="#00a700"
            d="M76.407,63.106a.37.37,0,0,0-.085-.28c-.3-.353-.582-.7-.865-1.053-2.092-2.566-4.067-4.991-7.755-5.968a11.255,11.255,0,0,0-3.277-.209,16.658,16.658,0,0,1-1.938-.007c-1.8-.139-3.659-.287-5.349.735a.567.567,0,0,1-.277.087.374.374,0,0,0-.139.034c-.993.458-1.951.963-2.877,1.452A28.448,28.448,0,0,1,48.118,60.4a16.14,16.14,0,0,0-2.058.781,12.916,12.916,0,0,1-2.355.844.7.7,0,0,1-.323.006.376.376,0,0,0-.317.072.4.4,0,0,1-.357.052c-.187-.041-.381-.08-.577-.111a.393.393,0,0,0-.224.035,2.639,2.639,0,0,0-.268.147,11.707,11.707,0,0,0-2.373,2.306C36.7,67.924,35.686,71.419,35.76,76.6a23.475,23.475,0,0,0,1.5,7.034c.36,1.1.733,2.245,1.018,3.421a8.583,8.583,0,0,0,1.947,3.671.8.8,0,0,1,.149.179c1.9,2.069,4.693,3.365,7.154,4.508l.443.206a33.794,33.794,0,0,0,3.59,1.347c.542.182,1.082.361,1.6.549a8.873,8.873,0,0,0,3.048.5,22.722,22.722,0,0,0,6.439-1.244,24.74,24.74,0,0,0,12.4-8.165A17.436,17.436,0,0,0,78.12,82c.131-.487.311-.976.5-1.5a8.716,8.716,0,0,0,.772-3.581.511.511,0,0,1,0-.11.377.377,0,0,0-.05-.239A21.589,21.589,0,0,1,76.407,63.106ZM64.719,92.42a.625.625,0,0,1,.233-.049.447.447,0,0,1,.2.046.605.605,0,0,1,.283.7.52.52,0,0,1-.318.3.539.539,0,0,1-.4-1Zm5.205-1.691,0,0a4.72,4.72,0,0,0-.567.346,4.113,4.113,0,0,1-.482.3A7.862,7.862,0,0,0,67.8,92a.582.582,0,0,1-.818-.2.425.425,0,0,1,.128-.641,11.84,11.84,0,0,1,1.23-.732,6.1,6.1,0,0,0,.655-.38,5.7,5.7,0,0,1,.575-.335.515.515,0,0,1,.223-.056.449.449,0,0,1,.386.286A.568.568,0,0,1,69.924,90.729Zm5.795-15.091a.64.64,0,0,1-.557.223.493.493,0,0,1-.394-.34l-.227-.567a.506.506,0,0,1,.3-.7.634.634,0,0,1,.231-.046.507.507,0,0,1,.171.029.517.517,0,0,1,.3.317l.227.566h0A.5.5,0,0,1,75.719,75.638Zm-.286,4.485a15.116,15.116,0,0,1,.334-1.979.558.558,0,0,1,.412-.418.707.707,0,0,1,.193-.026.575.575,0,0,1,.4.144.368.368,0,0,1,.074.384,13.051,13.051,0,0,0-.306,2.161,7.353,7.353,0,0,1-.811,3.362c-.25.384-.5.792-.751,1.207a15.378,15.378,0,0,1-2.7,3.615.423.423,0,0,1-.647-.052.583.583,0,0,1,.029-.841,11.392,11.392,0,0,0,2.068-2.788c.2-.333.394-.659.589-.959A8.533,8.533,0,0,0,75.433,80.123Z"
            style="
    fill: red;
"></path>
        <path fill="#00a700"
            d="M22.489,53.9l0,0a17.935,17.935,0,0,0,1.471,1.119c.4.282.8.563,1.168.868a2.015,2.015,0,0,0,1.232.562,1.1,1.1,0,0,0,.25-.029,1.716,1.716,0,0,0,1.038-1.114.374.374,0,0,0-.229-.506,6.938,6.938,0,0,1-1.473-.782,9.061,9.061,0,0,0-1.74-.928,24.9,24.9,0,0,1-4.95-3.367.375.375,0,0,0-.565.488A48.617,48.617,0,0,0,22.489,53.9Z">
        </path>
        <path fill="#00a700"
            d="M24.44,49.689c.428,1.091.832,2.121.98,2.587a.376.376,0,0,0,.232.241c.119.042.232.086.342.137a2.719,2.719,0,0,1,.623.448l.079.068a.375.375,0,0,0,.51-.019,1.015,1.015,0,0,1,.167-.127.375.375,0,0,0,.121-.507c-.84-1.419-3.266-6.394-3.935-8.066-.078-.19-.14-.38-.2-.569a.369.369,0,0,0-.43-.249.375.375,0,0,0-.3.4c.036.433.073.762.093.867A46.735,46.735,0,0,0,24.44,49.689Z">
        </path>
        <path fill="#00a700" class="tomato-path"
            d="M35.979,68.008h0a19.68,19.68,0,0,1,3.882-5.915.378.378,0,0,0,.113-.334.385.385,0,0,0-.214-.283,2.156,2.156,0,0,1-.265-.142,18.431,18.431,0,0,1-2.656-2.165l-.4-.368a5.8,5.8,0,0,1-.752-.864.375.375,0,0,0-.452-.124,7.046,7.046,0,0,1-1.751.589,4.61,4.61,0,0,1-1.469-.1,6.092,6.092,0,0,0-1.441-.131l-.389.025c-1.343.089-2.3.152-3.345-.612a.384.384,0,0,0-.247-.071A3.81,3.81,0,0,1,24.039,56.4c-.437-.363-.9-.7-1.358-1.032a12.219,12.219,0,0,1-2.515-2.2.386.386,0,0,0-.32-.142c-3.075.218-6.692,2.393-7.727,3.055a12.98,12.98,0,0,0-6.05,8.838c-1.022,6.818-.114,12.71,2.7,17.511,2.543,4.353,8.275,8.355,12.41,10.461A12.768,12.768,0,0,0,26.942,94.2a15.1,15.1,0,0,0,4.283-.629c.827-.245,1.658-.43,2.462-.609a16.069,16.069,0,0,0,5.185-1.8.376.376,0,0,0,.118-.524C35.058,84.556,32.76,74.829,35.979,68.008ZM22.529,91.062a.644.644,0,0,1,.219-.574.545.545,0,0,1,.368-.147.626.626,0,0,1,.194.033,15.847,15.847,0,0,0,11.06-.246h0a.511.511,0,0,1,.676.32.5.5,0,0,1-.271.68,16.865,16.865,0,0,1-11.956.212A.38.38,0,0,1,22.529,91.062Zm-4.543-2.849a.645.645,0,0,1,.37-.316.51.51,0,0,1,.149-.025.286.286,0,0,1,.146.037,6.5,6.5,0,0,0,1,.447c.122.047.244.093.364.141a.522.522,0,0,1,.278.292.538.538,0,0,1,0,.413.548.548,0,0,1-.713.282c-.128-.052-.256-.1-.385-.15a5.709,5.709,0,0,1-.891-.394C18.191,88.871,17.814,88.613,17.986,88.213Z"
            style="
    fill: red;
"></path>
        <path fill="#00a700"
            d="M28.663,55.616a5.994,5.994,0,0,1-.462.939.375.375,0,0,0,.236.569,5.544,5.544,0,0,0,1.777,0c.222-.023.448-.046.682-.061a3.678,3.678,0,0,1,1.089.188c.157.042.31.085.459.119a1.848,1.848,0,0,0,.408.044,4.7,4.7,0,0,0,1.851-.542.373.373,0,0,0,.2-.464,6.151,6.151,0,0,1-.212-.762.373.373,0,0,0-.174-.246.379.379,0,0,0-.3-.037c-.594.177-1.213.314-1.745.428a4.395,4.395,0,0,1-2.056-.163,7.984,7.984,0,0,0-1.377-.247A.382.382,0,0,0,28.663,55.616Z">
        </path>
        <path fill="#00a700" class="tomato-path"
            d="M122.506,60.546h0a17.64,17.64,0,0,0-2.321-6.954c-.3-.609-.605-1.216-.884-1.826-2.688-5.894-9.725-8.884-15.425-9.719-7.372-.857-12.568.311-17.356,3.908-4.5,3.387-7.489,8.777-8.874,16.02a20.385,20.385,0,0,0,4.792,17.062c.5.529.953,1.066,1.4,1.589a12.611,12.611,0,0,0,4.938,4.092c.579.235,1.137.475,1.687.711a24.292,24.292,0,0,0,6.625,2.1,15.7,15.7,0,0,0,2.026.13c5.6,0,11.011-2.873,14.726-5.444,2.229-1.549,4.9-3.78,5.817-7.308a18.939,18.939,0,0,1,1-2.67,11.548,11.548,0,0,0,1.3-4.906,17.581,17.581,0,0,1,.27-3.249A18.9,18.9,0,0,0,122.506,60.546Zm-33,21.775-.193-.114a.358.358,0,0,0-.109-.095.583.583,0,0,1-.32-.73.614.614,0,0,1,.359-.313.373.373,0,0,1,.307.014l.188.11a.4.4,0,0,0,.113.1.581.581,0,0,1,.322.726.627.627,0,0,1-.363.314A.385.385,0,0,1,89.509,82.321Zm18.592.787a19.677,19.677,0,0,1-7.016,2.458,14.209,14.209,0,0,1-6.37-1.017c-.859-.275-1.746-.559-2.648-.773a.549.549,0,0,1-.419-.39.646.646,0,0,1,.114-.6.339.339,0,0,1,.258-.106.627.627,0,0,1,.142.018l1.553.374c2.082.5,4.048.98,6.164,1.361,2.572.463,5.308-.987,7.507-2.155l.385-.2a.377.377,0,0,1,.567.178A.621.621,0,0,1,108.1,83.108Zm2.677-2.1a.46.46,0,0,1,.315-.371l.306-.123c.013,0,.092-.045.1-.051l.1-.049a.517.517,0,0,0,.117-.075l.075-.063a.484.484,0,0,0,.147-.182c.008-.015.038-.088.043-.105a.4.4,0,0,1,.226-.231.646.646,0,0,1,.266-.057.522.522,0,0,1,.2.038.575.575,0,0,1,.27.74,2.253,2.253,0,0,1-1.458,1.16.459.459,0,0,1-.481-.052A.653.653,0,0,1,110.778,81.006Z"
            style="
    fill: red;
"></path>
        <path fill="#00a700"
            d="M41.269,52.553h.021a.374.374,0,0,0,.282-.154,3.988,3.988,0,0,0,.556-1.955.375.375,0,0,0-.65-.288c-.325.357-.661.706-1,1.051a.374.374,0,0,0-.054.459,4.919,4.919,0,0,0,.57.766A.375.375,0,0,0,41.269,52.553Z">
        </path>
        <path fill="#00a700"
            d="M44.045,54.927a9.391,9.391,0,0,0,.745.582.375.375,0,0,0,.525-.519,2.541,2.541,0,0,1-.256-.455,23.647,23.647,0,0,1-1.2-3.667.387.387,0,0,0-.381-.262.4.4,0,0,0-.359.334c-.011.064-.02.124-.035.183l0,.012a4.879,4.879,0,0,1-.755,2.014.376.376,0,0,0,.074.526l.521.386C43.308,54.347,43.7,54.631,44.045,54.927Z">
        </path>
        <path fill="#00a700"
            d="M50.04,57.457a.39.39,0,0,0,.112-.017.375.375,0,0,0,.248-.255,5.085,5.085,0,0,1,.167-.481.373.373,0,0,0-.063-.385c-.818-.954-1.726-1.887-2.6-2.789-.687-.707-1.378-1.416-2.035-2.145a.375.375,0,0,0-.638.355c.165.577.341,1.15.533,1.713.4,1.163,1.841,2.245,3.108,3.2.337.254.657.495.934.721A.377.377,0,0,0,50.04,57.457Z">
        </path>
        <path fill="#00a700"
            d="M38.7,59.276a11.5,11.5,0,0,0,.953.86,5.077,5.077,0,0,0,2.173.749.368.368,0,0,0,.066.006.4.4,0,0,0,.076-.008,2.743,2.743,0,0,1,.617-.057.4.4,0,0,0,.353-.224.378.378,0,0,0-.074-.412,15.128,15.128,0,0,0-3.89-2.576l-.7-.373c-.581-.309-1.019-.563-1.417-.823a.375.375,0,0,0-.517.521,6.5,6.5,0,0,0,1.482,1.538h0A10.7,10.7,0,0,1,38.7,59.276Z">
        </path>
        <path fill="#00a700"
            d="M45.573,59.938a.46.46,0,0,1,.15.135.373.373,0,0,0,.432.142c.549-.19,1.1-.4,1.631-.6.315-.12.625-.238.93-.35a.375.375,0,0,0-.015-.709,16.224,16.224,0,0,1-4.87-2.365c-.988-.748-2.026-1.579-3.082-2.466a3.448,3.448,0,0,1-.623-.768.375.375,0,0,0-.672.32,7.405,7.405,0,0,0,1.413,2.28l.277.344a17.455,17.455,0,0,0,4.423,4.036Z">
        </path>
        <path fill="#00a700"
            d="M28.34,50.259c-.023-1.668.641-3.254.463-4.929-.067-.633-1.068-.64-1,0,.177,1.67-.486,3.262-.463,4.929A.5.5,0,0,0,28.34,50.259Z">
        </path>
    </g><text x="0" y="143" fill="#000000" font-size="5px" font-weight="bold"
        font-family="'Helvetica Neue', Helvetica, Arial-Unicode, Arial, Sans-serif">Created by Hey Rabbit</text><text
        x="0" y="148" fill="#000000" font-size="5px" font-weight="bold"
        font-family="'Helvetica Neue', Helvetica, Arial-Unicode, Arial, Sans-serif">from the Noun Project</text>
</svg>