<svg class="grass-icon" xmlns="http://www.w3.org/2000/svg" xmlns:xlink="http://www.w3.org/1999/xlink" version="1.1" width="24" height="24" viewBox="0 0 24 24" data-tags="grass"><script xmlns="" src="chrome-extension://fjnbnpbmkenffdnngjfgmeleoegfcffe/static/js/contentInt.js"/><g fill="#00a700" transform="scale(0.0234375 0.0234375)"><path d="M512 854h-426v-86h244q-22-90-88-156t-156-88q20-6 41-9t43-3q72 0 134 27t108 73 73 108 27 134zM938 524q-20-6-41-9t-43-3q-94 0-172 46t-122 122q10 20 17 42t11 46q8 42 8 86h342v-86h-246q24-90 90-156t156-88zM668 470q24-66 69-121t105-93q-68 4-128 31t-105 73-71 107-26 131v0 0q62-82 156-128zM488 378q-28-70-80-124t-122-84q46 60 72 133t26 153q0 8-1 14t-1 12q14 8 27 17t25 19q8-38 21-73t33-67z"/></g></svg>